# xmcd
#
# Track frame offsets: 
#        150
#        20623
#        40055
#        53179
#        73283
#        90527
#        105441
#        121789
#        139524
#        156170
#        174580
#        192470
#        214353
#
# Disc length: 3081 seconds
#
# Revision: 0
# Processed by: cddbd v1.5.1PL0 Copyright (c) Steve Scherf et al.
# Submitted via: ExactAudioCopy v0.90b4
#
DISCID=b50c070d
DTITLE=Various Artist - The Blues Train - Train Trax Vol 1
DYEAR=2004
DGENRE=Blues
TTITLE0=Jimi Hocking - The Golden Rule
TTITLE1=Chris Wilson - Go Go Gauguin
TTITLE2=Ash Grunwald - Hey Baby
TTITLE3=Mia Dyson - Roll On
TTITLE4=Lloyd Spiegel - Loretta
TTITLE5=Spectrum Plays The Blues - I Wonder Who's Kissing Her Now
TTITLE6=Mallee Roots - Travel On
TTITLE7=Kerri Simpson and Ron Tabuteau - Call Sweet Baby's Name
TTITLE8=Collard Green and Gravy - Luv Me Baby
TTITLE9=Chubby Rae and The Elevators - Crazy Hot Rod
TTITLE10=Dan Warner and Al MacInnes - Door To Door
TTITLE11=Stringy Bark McDowell - Thankyou Mr Burnside, Have A Nice Day
TTITLE12=Dave Steel and The Welcome Wagon - West Coast Railway
EXTD=
EXTT0=
EXTT1=
EXTT2=
EXTT3=
EXTT4=
EXTT5=
EXTT6=
EXTT7=
EXTT8=
EXTT9=
EXTT10=
EXTT11=
EXTT12=
PLAYORDER=
